# xmcd CD database file
#
# Track frame offsets:
#	150
#	10641
#	27180
#	44720
#	53793
#	65260
#	78883
#	90013
#	101303
#	114390
#	125675
#	137285
#	150474
#	160832
#	171766
#	181118
#	201787
#
# Disc length: 2880 seconds
#
# Revision: 0
# Processed by: cddbd v1.4PL0 Copyright (c) Steve Scherf et al.
# Submitted via: CDex 1.50beta10
#
DISCID=c00b3e11
DTITLE=Carlos Guitarlos - Straight From The Heart
DYEAR=2003
DGENRE=Blues
TTITLE0=Damn' Atchafalaya
TTITLE1=The Love I Want
TTITLE2=Ain't That Lovin' You
TTITLE3=Straight From The Heart
TTITLE4=Easyrider
TTITLE5=The Sea Of All My Troubles
TTITLE6=Poppin' and Bumpin'
TTITLE7=Keep My Hot Tamales Warm
TTITLE8=Two Tavern Town
TTITLE9=Dance With Your Baby
TTITLE10=Everybody's Got The Blues
TTITLE11=The Drought Song
TTITLE12=Women and Whiskey
TTITLE13=Co Co Club
TTITLE14=Where Is The Music?
TTITLE15=You Don't Know What Love Is
TTITLE16=When The Pain Stops Killing Me
EXTD=YEAR: 2003
EXTT0=
EXTT1=
EXTT2=
EXTT3=
EXTT4=
EXTT5=
EXTT6=
EXTT7=
EXTT8=
EXTT9=
EXTT10=
EXTT11=
EXTT12=
EXTT13=
EXTT14=
EXTT15=
EXTT16=
PLAYORDER=
